<?xml version="1.0" encoding="UTF-8"?>
<svg version="1.1" xmlns="http://www.w3.org/2000/svg" width="549" height="198">
<path d="M0 0 C181.17 0 362.34 0 549 0 C549 65.34 549 130.68 549 198 C367.83 198 186.66 198 0 198 C0 132.66 0 67.32 0 0 Z " fill="#FDFEFE" transform="translate(0,0)"/>
<path d="M0 0 C38.43840344 -0.1131817 76.87676283 -0.20262879 115.31529957 -0.25532665 C119.85985819 -0.26157971 124.40441648 -0.26805136 128.94897461 -0.2746582 C130.30600603 -0.27662553 130.30600603 -0.27662553 131.69045223 -0.2786326 C146.31276948 -0.30035153 160.93498781 -0.33975357 175.5572465 -0.38576398 C190.57631723 -0.43262662 205.59533638 -0.46031607 220.61447722 -0.47044247 C229.87191812 -0.47728136 239.12907934 -0.49883109 248.38643409 -0.53958233 C254.74635106 -0.566142 261.10612479 -0.5739713 267.46609312 -0.56750689 C271.12804745 -0.56432439 274.78951528 -0.56898111 278.45138168 -0.59602737 C299.02162468 -0.74029553 318.00414652 -0.45456944 334.19921875 13.95703125 C343.67799236 23.68857215 348.97544499 36.43625501 349.25 49.875 C348.99995525 63.70100367 345.24706251 76.44827769 336 87 C335.49984375 87.60457031 334.9996875 88.20914063 334.484375 88.83203125 C326.98749032 97.18414306 315.57635611 101.09668656 305 104 C310.6042193 110.18112423 316.21586097 116.30550851 322.18359375 122.140625 C324.01370804 124.01403232 325.652761 125.97535384 327.3125 128 C333.91377787 135.62147536 342.31757116 141.31043643 352 144 C362.395 144.495 362.395 144.495 373 145 C373 97.15 373 49.3 373 0 C390.9025 -0.061875 408.805 -0.12375 427.25 -0.1875 C435.70028809 -0.22846802 435.70028809 -0.22846802 444.32128906 -0.27026367 C451.24951172 -0.28381348 451.24951172 -0.28381348 454.50238037 -0.28633118 C456.75353784 -0.29091012 459.00468837 -0.30140317 461.25579834 -0.31672668 C464.68400677 -0.33887761 468.11176916 -0.34171163 471.54003906 -0.34057617 C472.52738163 -0.3513705 473.5147242 -0.36216482 474.53198624 -0.37328625 C488.43125154 -0.31219102 503.20642462 4.10825145 513.5 13.8125 C522.90879972 24.2689605 526.69128598 35.28446927 526.33984375 49.2578125 C525.35126119 60.14358369 520.59048337 70.39669874 512.1484375 77.57421875 C510.5 78.6875 510.5 78.6875 508 80 C510.34161846 81.88840199 512.67100545 83.76655902 515.125 85.5078125 C523.36539953 91.49323784 529.85789211 100.17416584 532.5859375 110.140625 C534.88716201 126.0320999 533.12477609 141.13246147 523.90234375 154.56640625 C515.06298443 165.87425195 501.02144772 172.03040236 487 174 C477.64908336 174.69241843 468.25278648 174.54915094 458.88163447 174.50437045 C455.21003285 174.49034568 451.53845542 174.49699946 447.86683655 174.50050354 C441.70663485 174.50319175 435.54662954 174.48984957 429.38647461 174.46655273 C422.30121352 174.4399399 415.21628013 174.43820488 408.13098615 174.4499411 C401.26614634 174.46078218 394.40142311 174.45448327 387.53659248 174.44038582 C384.63703155 174.43468175 381.73755753 174.43466402 378.83799553 174.43945122 C374.77585407 174.44518318 370.71418722 174.42574976 366.65209961 174.40405273 C365.47300018 174.40855438 364.29390076 174.41305603 363.07907104 174.41769409 C340.57425223 174.21957038 322.82750385 165.71834865 307 150 C305.99969374 148.84851751 305.00568605 147.69155325 304.015625 146.53125 C298.83493419 140.54393478 293.12912645 135.06021846 287.5 129.5 C274.45501743 116.61470536 274.45501743 116.61470536 269.48242188 110.70117188 C268.99322266 110.13978516 268.50402344 109.57839844 268 109 C267.49887695 108.28102539 266.99775391 107.56205078 266.48144531 106.82128906 C262.45650362 103.86713076 258.19444411 104.39614505 253.328125 104.390625 C251.94826416 104.36718018 251.94826416 104.36718018 250.54052734 104.34326172 C247.11061284 104.29073709 243.68024346 104.27240794 240.25 104.25 C232.5775 104.1675 224.905 104.085 217 104 C217 127.1 217 150.2 217 174 C206.77 174 196.54 174 186 174 C186 141.66 186 109.32 186 76 C193.89679688 75.96261719 201.79359375 75.92523438 209.9296875 75.88671875 C214.94272985 75.85643054 219.95573707 75.82527697 224.96875 75.79101562 C232.91958076 75.73675795 240.87033196 75.68564501 248.82128906 75.65356445 C255.23399423 75.62748958 261.64646507 75.58705693 268.05902481 75.53681374 C270.50130415 75.52017343 272.94362398 75.50864155 275.385952 75.50238609 C278.81598017 75.49271443 282.24541266 75.46461724 285.67529297 75.43237305 C287.1782618 75.43452568 287.1782618 75.43452568 288.71159363 75.4367218 C296.25880058 75.33687352 304.14318795 74.45198045 310.375 69.8125 C316.5871531 63.15662167 317.66939488 57.45568329 317.38671875 48.3515625 C316.71240067 42.50747246 314.8101402 38.86042187 310.75 34.6875 C304.38958699 30.78451929 298.75873804 29.55430796 291.44519043 29.60127258 C290.62164456 29.59462576 289.79809869 29.58797893 288.94959688 29.58113068 C286.21041026 29.56258793 283.4716638 29.56510005 280.73242188 29.56762695 C278.76081734 29.55860446 276.78921841 29.54827605 274.81762695 29.53674316 C269.47941307 29.50920434 264.14130572 29.49989284 258.80303001 29.49388909 C253.21894498 29.48449736 247.63493926 29.45829328 242.05090332 29.43388367 C231.48306085 29.39023706 220.9152338 29.36167875 210.34732866 29.33856028 C196.06245411 29.30643677 181.77767137 29.25096711 167.49286652 29.19681454 C144.99527166 29.11214261 122.4977127 29.05862991 100 29 C100 76.85 100 124.7 100 174 C89.77 174 79.54 174 69 174 C69 126.15 69 78.3 69 29 C46.23 29 23.46 29 0 29 C0 19.43 0 9.86 0 0 Z " fill="#1C75B6" transform="translate(9,13)"/>
<path d="M0 0 C38.43840344 -0.1131817 76.87676283 -0.20262879 115.31529957 -0.25532665 C119.85985819 -0.26157971 124.40441648 -0.26805136 128.94897461 -0.2746582 C130.30600603 -0.27662553 130.30600603 -0.27662553 131.69045223 -0.2786326 C146.31276948 -0.30035153 160.93498781 -0.33975357 175.5572465 -0.38576398 C190.57631723 -0.43262662 205.59533638 -0.46031607 220.61447722 -0.47044247 C229.87191812 -0.47728136 239.12907934 -0.49883109 248.38643409 -0.53958233 C254.74635106 -0.566142 261.10612479 -0.5739713 267.46609312 -0.56750689 C271.12804745 -0.56432439 274.78951528 -0.56898111 278.45138168 -0.59602737 C299.02162468 -0.74029553 318.00414652 -0.45456944 334.19921875 13.95703125 C343.67799236 23.68857215 348.97544499 36.43625501 349.25 49.875 C348.99995525 63.70100367 345.24706251 76.44827769 336 87 C335.49984375 87.60457031 334.9996875 88.20914063 334.484375 88.83203125 C326.98749032 97.18414306 315.57635611 101.09668656 305 104 C310.6042193 110.18112423 316.21586097 116.30550851 322.18359375 122.140625 C324.01370804 124.01403232 325.652761 125.97535384 327.3125 128 C335.34379783 137.2724984 346.53759306 144.06027092 358.89453125 145.17016602 C361.03331302 145.31955154 363.1716761 145.44566426 365.3125 145.5625 C367.849375 145.706875 370.38625 145.85125 373 146 C373 154.91 373 163.82 373 173 C342.7485408 173.75252386 342.7485408 173.75252386 331 168 C329.63101563 167.33097656 329.63101563 167.33097656 328.234375 166.6484375 C319.63972964 161.92929174 312.87165508 154.87826071 306 148 C304.89962942 146.9041612 303.79885519 145.80872763 302.69775391 144.71362305 C299.38363131 141.41739817 296.07264202 138.11804479 292.76269531 134.81762695 C291.34204706 133.40200841 289.9205027 131.98728856 288.49804688 130.57348633 C286.42596386 128.51364569 284.35722771 126.45049212 282.2890625 124.38671875 C281.66278961 123.76560715 281.03651672 123.14449554 280.39126587 122.50456238 C277.24280131 119.35649156 274.21535483 116.14962755 271.29443359 112.78833008 C270.71094147 112.1271669 270.12744934 111.46600372 269.52627563 110.7848053 C268 109 268 109 266.22949219 106.53808594 C262.34954432 103.86138077 257.92025532 104.39583403 253.328125 104.390625 C251.94826416 104.36718018 251.94826416 104.36718018 250.54052734 104.34326172 C247.11061284 104.29073709 243.68024346 104.27240794 240.25 104.25 C232.5775 104.1675 224.905 104.085 217 104 C217 127.1 217 150.2 217 174 C206.77 174 196.54 174 186 174 C186 141.66 186 109.32 186 76 C193.89679688 75.96261719 201.79359375 75.92523438 209.9296875 75.88671875 C214.94272985 75.85643054 219.95573707 75.82527697 224.96875 75.79101562 C232.91958076 75.73675795 240.87033196 75.68564501 248.82128906 75.65356445 C255.23399423 75.62748958 261.64646507 75.58705693 268.05902481 75.53681374 C270.50130415 75.52017343 272.94362398 75.50864155 275.385952 75.50238609 C278.81598017 75.49271443 282.24541266 75.46461724 285.67529297 75.43237305 C287.1782618 75.43452568 287.1782618 75.43452568 288.71159363 75.4367218 C296.25880058 75.33687352 304.14318795 74.45198045 310.375 69.8125 C316.5871531 63.15662167 317.66939488 57.45568329 317.38671875 48.3515625 C316.71240067 42.50747246 314.8101402 38.86042187 310.75 34.6875 C304.38958699 30.78451929 298.75873804 29.55430796 291.44519043 29.60127258 C290.62164456 29.59462576 289.79809869 29.58797893 288.94959688 29.58113068 C286.21041026 29.56258793 283.4716638 29.56510005 280.73242188 29.56762695 C278.76081734 29.55860446 276.78921841 29.54827605 274.81762695 29.53674316 C269.47941307 29.50920434 264.14130572 29.49989284 258.80303001 29.49388909 C253.21894498 29.48449736 247.63493926 29.45829328 242.05090332 29.43388367 C231.48306085 29.39023706 220.9152338 29.36167875 210.34732866 29.33856028 C196.06245411 29.30643677 181.77767137 29.25096711 167.49286652 29.19681454 C144.99527166 29.11214261 122.4977127 29.05862991 100 29 C100 76.85 100 124.7 100 174 C89.77 174 79.54 174 69 174 C69 126.15 69 78.3 69 29 C46.23 29 23.46 29 0 29 C0 19.43 0 9.86 0 0 Z " fill="#131736" transform="translate(9,13)"/>
<path d="M0 0 C18.73527049 -0.16043524 18.73527049 -0.16043524 26.78515625 -0.1953125 C32.25585653 -0.2191283 37.7262864 -0.24715498 43.19677734 -0.30175781 C47.61236769 -0.34555031 52.02766763 -0.36920683 56.44345856 -0.37950897 C58.11940322 -0.38684091 59.79533387 -0.40115674 61.47115326 -0.42292023 C72.2998817 -0.55782492 83.20701715 -0.44169825 92.4375 6.125 C97.09934552 11.35536327 100.24135155 16.95293767 100.5625 24.0625 C100.15221497 30.94017279 97.82974803 36.65560023 92.75 41.375 C86.91588869 46.31377739 80.01035854 47.44943558 72.65625 47.34057617 C71.86504257 47.34101425 71.07383514 47.34145233 70.25865173 47.34190369 C67.67217367 47.33983208 65.08636326 47.31657921 62.5 47.29296875 C60.69539748 47.28736698 58.89079037 47.28309963 57.08618164 47.28010559 C52.3580444 47.26870253 47.63018774 47.23927484 42.90216064 47.20599365 C37.21775611 47.1697705 31.53325728 47.15610998 25.84877014 47.13863373 C17.23231885 47.10963445 8.61648206 47.05211582 0 47 C0 31.49 0 15.98 0 0 Z " fill="#FDFEFE" transform="translate(413,111)"/>
<path d="M0 0 C18.35646507 -0.16043524 18.35646507 -0.16043524 26.22070312 -0.1953125 C31.57316072 -0.21916327 36.9253429 -0.24728578 42.27758789 -0.30175781 C46.59590727 -0.34542883 50.91393102 -0.36918171 55.2324543 -0.37950897 C56.87459525 -0.38686241 58.51672122 -0.40122155 60.15873528 -0.42292023 C70.38045737 -0.55254436 78.53343369 -0.27818233 86.875 6.25 C91.01539284 11.60815545 92.83499504 17.20075469 92 24 C90.43019038 29.13513993 88.33761742 33.7888645 83.85090637 37.01628113 C74.71051946 41.87420978 64.42843817 41.39893455 54.39453125 41.29296875 C52.81841947 41.28736077 51.24230239 41.28309637 49.66618347 41.28010559 C45.55456639 41.26875125 41.44327653 41.23936743 37.33178711 41.20599365 C32.37902333 41.16963627 27.42614903 41.15608669 22.47328949 41.13863373 C14.9819667 41.10972253 7.49135926 41.05217093 0 41 C0 27.47 0 13.94 0 0 Z " fill="#F9FDFE" transform="translate(413,42)"/>
<path d="M0 0 C26.97094601 -0.12032643 26.97094601 -0.12032643 38.515625 -0.14648438 C46.3763643 -0.16437999 54.23699823 -0.18549364 62.09765625 -0.22631836 C68.43893332 -0.25904396 74.78009729 -0.27688087 81.12145233 -0.28463173 C83.53421558 -0.29015157 85.94697303 -0.30093019 88.35968781 -0.31719017 C91.75327166 -0.3391397 95.14639504 -0.34195959 98.54003906 -0.34057617 C100.01819595 -0.35675491 100.01819595 -0.35675491 101.5262146 -0.3732605 C115.42781502 -0.31240394 130.20443774 4.10637833 140.5 13.8125 C149.90879972 24.2689605 153.69128598 35.28446927 153.33984375 49.2578125 C152.38772892 59.74201948 148.11235083 68.27363327 141 76 C138.39491356 78.03799279 135.95298419 79.47077604 133 81 C133 79.68 133 78.36 133 77 C135.4375 75.375 135.4375 75.375 138 74 C138.33 73.34 138.66 72.68 139 72 C139.66 72 140.32 72 141 72 C141.268125 71.443125 141.53625 70.88625 141.8125 70.3125 C143 68 143 68 144.4375 65.875 C149.58923337 56.3958106 150.41145357 45.60185733 149 35 C147.99376479 31.80096549 146.81945214 29.08619614 145.19140625 26.1640625 C144.04825053 24.08764195 143.45939521 22.31281725 143 20 C142.34 20 141.68 20 141 20 C139.65080468 18.34614767 138.31866272 16.678298 137 15 C136.01 14.34 135.02 13.68 134 13 C134 12.34 134 11.68 134 11 C133.13375 10.731875 132.2675 10.46375 131.375 10.1875 C128 9 128 9 125.26953125 7.53125 C121.66687484 5.84398439 118.20318873 4.97952742 114.3125 4.3125 C113.58643555 4.18584961 112.86037109 4.05919922 112.11230469 3.92871094 C102.83018482 2.46394425 92.4086898 1.70425397 83.140625 3.578125 C81 4 81 4 78 3 C75.12305329 2.9146987 72.27099818 2.88414355 69.39453125 2.90234375 C68.55532639 2.9037587 67.71612152 2.90517365 66.85148621 2.90663147 C64.17178784 2.91222785 61.4921731 2.92477965 58.8125 2.9375 C56.99544392 2.94251547 55.17838652 2.94707829 53.36132812 2.95117188 C48.90751987 2.96219609 44.45377411 2.97945822 40 3 C40 2.34 40 1.68 40 1 C27.13 1 14.26 1 1 1 C1 23.77 1 46.54 1 70 C0.67 70 0.34 70 0 70 C0 46.9 0 23.8 0 0 Z " fill="#4094B7" transform="translate(382,13)"/>
<path d="M0 0 C1.35502625 0.00599716 1.35502625 0.00599716 2.73742676 0.01211548 C12.16359231 0.06596132 21.58854918 0.2040576 31.01269531 0.40332031 C32.91431319 0.44202175 34.81601471 0.47679503 36.71777344 0.5078125 C47.42266061 0.68276469 57.81104859 0.98974272 68.34375 3.0859375 C68.34375 3.7459375 68.34375 4.4059375 68.34375 5.0859375 C69.4265625 5.4571875 69.4265625 5.4571875 70.53125 5.8359375 C77.2168219 8.80730279 80.10728212 13.28613445 83.17578125 19.69921875 C85.03856765 25.10067631 85.21830936 30.45175701 84.34375 36.0859375 C83.35375 37.0759375 83.35375 37.0759375 82.34375 38.0859375 C82.116875 38.8284375 81.89 39.5709375 81.65625 40.3359375 C79.21689451 45.44696805 75.4467061 48.18889109 70.28515625 50.390625 C67.3122937 51.42559516 64.41860072 52.40937702 61.34375 53.0859375 C60.68375 52.7559375 60.02375 52.4259375 59.34375 52.0859375 C56.8425267 51.96378265 54.36727013 51.90030469 51.86474609 51.88061523 C51.09392197 51.87071564 50.32309784 51.86081604 49.52891541 51.85061646 C46.9750376 51.8189692 44.42114118 51.79423133 41.8671875 51.76953125 C40.09884145 51.7489645 38.33050035 51.72796811 36.56216431 51.70655823 C31.90315757 51.65130869 27.24410625 51.60191214 22.58502197 51.55371094 C17.83268253 51.50351694 13.08040798 51.44781992 8.328125 51.39257812 C-0.99994459 51.28496131 -10.32807047 51.18352417 -19.65625 51.0859375 C-19.82140595 48.42182245 -19.98422063 45.75759705 -20.14575195 43.09326172 C-20.19203987 42.35045456 -20.23832779 41.6076474 -20.28601837 40.84233093 C-20.74003511 33.29675478 -20.83992815 25.77055516 -20.84375 18.2109375 C-20.85594817 16.86848801 -20.86831771 15.52604007 -20.88085938 14.18359375 C-20.88279297 12.91644531 -20.88472656 11.64929688 -20.88671875 10.34375 C-20.89082764 9.2108252 -20.89493652 8.07790039 -20.89916992 6.91064453 C-20.65625 4.0859375 -20.65625 4.0859375 -18.65625 1.0859375 C-16.83166504 0.57723999 -16.83166504 0.57723999 -14.63476562 0.40380859 C-13.42300659 0.30746124 -13.42300659 0.30746124 -12.18676758 0.20916748 C-8.12048293 0.01114942 -4.0705537 -0.03385127 0 0 Z M-17.65625 3.0859375 C-17.65625 18.5959375 -17.65625 34.1059375 -17.65625 50.0859375 C-3.50393789 50.20241477 -3.50393789 50.20241477 10.6484375 50.28125 C16.42658305 50.3050973 22.20447339 50.33321068 27.98242188 50.38769531 C32.64438792 50.43137793 37.30608 50.4551217 41.96823502 50.46544647 C43.74072706 50.47279781 45.51320529 50.4871527 47.28557968 50.50885773 C62.44602451 50.78430508 62.44602451 50.78430508 75.78125 44.15625 C80.7840155 37.92780695 82.92161771 32.81853525 82.71484375 24.7421875 C81.80357391 18.21941392 78.7338585 12.81969803 73.65625 8.6484375 C63.62292055 2.2932162 52.98555029 2.68204711 41.5234375 2.79296875 C39.81137466 2.79857395 38.09930695 2.80283968 36.38723755 2.80583191 C31.91229635 2.81720801 27.43765391 2.84661164 22.96282959 2.87994385 C17.57706881 2.91624104 12.19120734 2.92984039 6.80535889 2.94730377 C-1.34871762 2.97625434 -9.50214044 3.03379137 -17.65625 3.0859375 Z " fill="#356B97" transform="translate(430.65625,107.9140625)"/>
<path d="M0 0 C27.9365625 -0.061875 27.9365625 -0.061875 56.4375 -0.125 C62.30716553 -0.14320801 68.17683105 -0.16141602 74.22436523 -0.18017578 C81.42004395 -0.18920898 81.42004395 -0.18920898 84.79408264 -0.19088745 C87.13869487 -0.19394837 89.48330404 -0.20096121 91.82789612 -0.21115112 C95.3897952 -0.22585095 98.95150273 -0.22780995 102.51342773 -0.22705078 C104.06684325 -0.23784511 104.06684325 -0.23784511 105.65164089 -0.2488575 C111.74088425 -0.23155573 117.10291058 0.46291153 123 2 C123 2.66 123 3.32 123 4 C123.7425 3.95875 124.485 3.9175 125.25 3.875 C128.08758952 4.00398134 129.58773938 4.57051222 132 6 C132 6.99 132 7.98 132 9 C130.7625 8.566875 129.525 8.13375 128.25 7.6875 C118.63105377 4.51600988 109.69069741 2.55296694 99.54003906 2.56762695 C98.44825222 2.55735316 97.35646538 2.54707937 96.23159409 2.53649426 C92.74287935 2.50691407 89.25444712 2.49711267 85.765625 2.48828125 C83.59357745 2.47279274 81.42153886 2.45599191 79.24951172 2.43786621 C71.24977305 2.3802178 63.24986827 2.34785209 55.25 2.3125 C37.3475 2.209375 19.445 2.10625 1 2 C1 49.85 1 97.7 1 147 C-0.98 147 -2.96 147 -5 147 C-5 146.67 -5 146.34 -5 146 C-3.35 146 -1.7 146 0 146 C0 97.82 0 49.64 0 0 Z " fill="#DAF8FE" transform="translate(381,11)"/>
<path d="M0 0 C0.33 0 0.66 0 1 0 C2.17077946 7.40834831 2.14439794 14.73006173 2.1328125 22.21875 C2.13348811 23.60388201 2.13446026 24.9890139 2.13571167 26.37414551 C2.1371805 29.27222832 2.13506303 32.17028018 2.13037109 35.06835938 C2.12471721 38.73449976 2.12793026 42.40056621 2.13394356 46.0667038 C2.13760816 48.92908251 2.13638325 51.79144456 2.13381577 54.65382385 C2.13284715 56.64743092 2.13582366 58.6410387 2.13894653 60.63464355 C2.11896293 68.58645857 1.76224953 76.43284551 1.11642456 84.3536377 C0.99887357 88.03527918 1.46555767 91.36586244 2 95 C1.67 95.66 1.34 96.32 1 97 C0.92805131 99.88370333 0.90708292 102.74239664 0.9375 105.625 C0.94201172 106.42679687 0.94652344 107.22859375 0.95117188 108.0546875 C0.96296832 110.03649006 0.98090395 112.01825433 1 114 C2.31701904 113.89389404 2.31701904 113.89389404 3.66064453 113.78564453 C15.02112597 112.96522139 26.33880341 112.84658134 37.72607422 112.86962891 C40.86300515 112.87497954 43.99979219 112.86965612 47.13671875 112.86328125 C59.12589561 112.85974316 71.0389896 113.1700832 83 114 C83 114.33 83 114.66 83 115 C48.32867426 115.74860288 13.6793921 116.15180554 -21 116 C-21 115.67 -21 115.34 -21 115 C-14.4 115 -7.8 115 -1 115 C-1 106.09 -1 97.18 -1 88 C-6.28 88 -11.56 88 -17 88 C-17 87.67 -17 87.34 -17 87 C-11.72 87 -6.44 87 -1 87 C-1.00785522 83.68630371 -1.00785522 83.68630371 -1.01586914 80.30566406 C-1.03251935 72.9655773 -1.04351674 65.62548966 -1.05181217 58.28538895 C-1.05700675 53.83982587 -1.06404139 49.39428231 -1.07543945 44.94873047 C-1.08639106 40.64987753 -1.09230256 36.35104325 -1.09487724 32.05217743 C-1.09670956 30.4209336 -1.10028705 28.78969067 -1.10573006 27.1584549 C-1.13485212 18.05995071 -0.97188167 9.05914108 0 0 Z " fill="#3F497B" transform="translate(383,71)"/>
<path d="M0 0 C0.66248245 0.00624893 1.3249649 0.01249786 2.00752258 0.01893616 C4.18708703 0.0423218 6.36608029 0.08074285 8.54541016 0.12011719 C10.068483 0.14123548 11.59156485 0.16171299 13.11465454 0.18157959 C16.30395538 0.22553363 19.49302858 0.27687103 22.68212891 0.33349609 C26.75602849 0.40529584 30.82993038 0.4593772 34.90416527 0.50795364 C38.04938754 0.54732958 41.19441763 0.59588302 44.33946609 0.64717865 C45.84082652 0.6706335 47.34223244 0.69135001 48.84366989 0.70920563 C50.94943863 0.73568921 53.0546453 0.77449057 55.16015625 0.81640625 C56.95288467 0.84544037 56.95288467 0.84544037 58.78182983 0.87506104 C65.37475602 1.43657828 71.65720437 3.5580178 77.20947266 7.16699219 C78.95947266 9.35449219 78.95947266 9.35449219 80.20947266 12.16699219 C80.55880859 12.85148437 80.90814453 13.53597656 81.26806641 14.24121094 C83.91611144 19.63809164 85.41124898 24.10693703 83.63134766 30.12011719 C82.89697266 32.04199219 82.89697266 32.04199219 81.20947266 35.16699219 C79.72447266 35.66199219 79.72447266 35.66199219 78.20947266 36.16699219 C78.70447266 34.40355469 78.70447266 34.40355469 79.20947266 32.60449219 C80.99926897 25.2779159 80.16623932 19.95277167 77.20947266 13.16699219 C76.92072266 12.38324219 76.63197266 11.59949219 76.33447266 10.79199219 C74.68871433 8.41478571 72.93387792 8.03384841 70.20947266 7.16699219 C69.31880096 6.82552155 68.42812927 6.4840509 67.51046753 6.13223267 C63.75510019 5.03412961 60.55502278 4.88765431 56.64355469 4.84814453 C55.54496376 4.8330761 55.54496376 4.8330761 54.42417908 4.81770325 C52.02188853 4.78700209 49.61970875 4.76987287 47.21728516 4.75292969 C45.54433243 4.73420749 43.87138905 4.7146333 42.19845581 4.69424438 C37.80913816 4.6430282 33.41978994 4.60334639 29.03033447 4.56610107 C23.75631747 4.51893594 18.48245096 4.45738334 13.20855713 4.39825439 C5.2089234 4.31017034 -2.79068335 4.24031444 -10.79052734 4.16699219 C-10.79052734 17.69699219 -10.79052734 31.22699219 -10.79052734 45.16699219 C-11.12052734 45.16699219 -11.45052734 45.16699219 -11.79052734 45.16699219 C-11.79052734 30.97699219 -11.79052734 16.78699219 -11.79052734 2.16699219 C-7.06448714 0.27657611 -4.91112294 -0.06654964 0 0 Z " fill="#449AC1" transform="translate(423.79052734375,37.8330078125)"/>
<path d="M0 0 C18.81548811 -0.12032643 18.81548811 -0.12032643 26.8828125 -0.14648438 C32.37118311 -0.164365 37.85940248 -0.18543728 43.34765625 -0.22631836 C47.77619196 -0.25909648 52.20456531 -0.27689165 56.63321304 -0.28463173 C58.31637245 -0.2901423 59.99952375 -0.3009025 61.68261337 -0.31719017 C70.48895461 -0.39896309 78.70963089 -0.43058978 87 3 C83.98968256 3.93423645 83.13349732 4.04449911 80 3 C77.55660512 2.90421625 75.14205215 2.86352276 72.69873047 2.87060547 C71.58857574 2.86797699 71.58857574 2.86797699 70.45599365 2.86529541 C68.00970109 2.86089395 65.5634808 2.86380829 63.1171875 2.8671875 C61.41993191 2.86651411 59.72267641 2.8655438 58.02542114 2.86428833 C54.4695748 2.86281379 50.91375358 2.86495864 47.35791016 2.86962891 C42.78998765 2.87533473 38.22212378 2.87204026 33.65420341 2.86605644 C30.15076247 2.86245166 26.64733555 2.86358888 23.1438942 2.86618423 C21.4589042 2.86685328 19.77391294 2.86602584 18.08892441 2.86370468 C15.74007516 2.86117857 13.39132248 2.86501773 11.04248047 2.87060547 C10.34013275 2.86858124 9.63778503 2.86655701 8.91415405 2.86447144 C5.67750191 2.6039104 5.67750191 2.6039104 3 4 C1.0178575 17.8749975 1.40028991 31.98985323 1 46 C42.58 45.505 42.58 45.505 85 45 C80.71775956 47.14112022 77.73868493 47.2718408 73.11035156 47.22705078 C72.31972824 47.22734283 71.52910492 47.22763489 70.71452332 47.22793579 C68.1064448 47.22654467 65.49865349 47.21099379 62.890625 47.1953125 C61.08030351 47.19158159 59.26998 47.18873499 57.45965576 47.18673706 C52.69865325 47.17910672 47.93777308 47.15946334 43.17681885 47.1373291 C37.46244332 47.11325753 31.74802685 47.10408684 26.03361511 47.09242249 C17.35565837 47.07303862 8.67796996 47.03471188 0 47 C0 31.49 0 15.98 0 0 Z " fill="#E0F8FE" transform="translate(413,111)"/>
<path d="M0 0 C1 3 1 3 0.03125 5.63671875 C-6.59891675 18.84631119 -14.68955135 27.25989118 -28.87890625 32.21411133 C-36.58161294 34.76440817 -43.25865285 36.15106718 -51.37036133 36.11352539 C-52.20014496 36.11367142 -53.02992859 36.11381744 -53.88485718 36.1139679 C-56.61727547 36.11327333 -59.34962492 36.10550229 -62.08203125 36.09765625 C-63.9806057 36.09579045 -65.87918063 36.09436731 -67.77775574 36.09336853 C-72.76721534 36.0895561 -77.75664568 36.0797367 -82.74609375 36.06866455 C-87.84049077 36.05842303 -92.93489252 36.05386504 -98.02929688 36.04882812 C-108.01954408 36.03811328 -118.0097696 36.02105216 -128 36 C-128 35.67 -128 35.34 -128 35 C-126.15269287 34.970271 -126.15269287 34.970271 -124.26806641 34.93994141 C-119.70942339 34.86400818 -115.15110473 34.77527237 -110.59277344 34.68261719 C-108.61790356 34.64427651 -106.64296264 34.6094327 -104.66796875 34.578125 C-101.83307455 34.53258453 -98.9986717 34.47457285 -96.1640625 34.4140625 C-95.27756012 34.40251129 -94.39105774 34.39096008 -93.47769165 34.37905884 C-92.65699188 34.35918915 -91.83629211 34.33931946 -90.99072266 34.31884766 C-90.26680328 34.30552399 -89.54288391 34.29220032 -88.79702759 34.2784729 C-86.74846505 34.14212079 -86.74846505 34.14212079 -85 32 C-81.76953125 32.05859375 -81.76953125 32.05859375 -77.8125 32.4375 C-72.61135768 32.93013063 -68.15369204 32.78584666 -63 32 C-60.48828125 32.15625 -60.48828125 32.15625 -58.3125 32.5 C-55.15975879 32.99279081 -53.06875925 32.80981147 -50 32 C-48.741875 32.061875 -47.48375 32.12375 -46.1875 32.1875 C-41.64536203 32.25574581 -37.48575849 31.29258326 -33.125 30.125 C-32.14309692 29.86432739 -32.14309692 29.86432739 -31.14135742 29.59838867 C-28.00039948 28.7177805 -25.7412938 27.8275292 -23 26 C-22.01 26 -21.02 26 -20 26 C-20 25.34 -20 24.68 -20 24 C-19.01 24 -18.02 24 -17 24 C-17 23.34 -17 22.68 -17 22 C-12.52941176 18 -12.52941176 18 -10 18 C-9.896875 17.38125 -9.79375 16.7625 -9.6875 16.125 C-9 14 -9 14 -6 12 C-5.27617533 9.94074861 -5.27617533 9.94074861 -5 8 C-4.34 8 -3.68 8 -3 8 C-2.5359375 6.2984375 -2.5359375 6.2984375 -2.0625 4.5625 C-1 1 -1 1 0 0 Z " fill="#5F81A5" transform="translate(539,151)"/>
<path d="M0 0 C2.97 0 5.94 0 9 0 C9 0.66 9 1.32 9 2 C10.0828125 2.37125 10.0828125 2.37125 11.1875 2.75 C17.8730719 5.72136529 20.76353212 10.20019695 23.83203125 16.61328125 C25.69481765 22.01473881 25.87455936 27.36581951 25 33 C24.01 33.99 24.01 33.99 23 35 C22.773125 35.7425 22.54625 36.485 22.3125 37.25 C19.87314451 42.36103055 16.1029561 45.10295359 10.94140625 47.3046875 C7.9685437 48.33965766 5.07485072 49.32343952 2 50 C1.34 49.67 0.68 49.34 0 49 C-2.44022934 48.87796382 -4.85386176 48.81439143 -7.29541016 48.79467773 C-8.04672714 48.78477814 -8.79804413 48.77487854 -9.5721283 48.76467896 C-12.06107406 48.73303477 -14.55003893 48.70829505 -17.0390625 48.68359375 C-18.76256818 48.66302674 -20.48606879 48.64203033 -22.20956421 48.62062073 C-26.7502024 48.56537393 -31.2908863 48.51597617 -35.831604 48.46777344 C-40.46329832 48.41757744 -45.09492609 48.36188146 -49.7265625 48.30664062 C-58.81765151 48.19902716 -67.90879825 48.09758928 -77 48 C-77 47.67 -77 47.34 -77 47 C-76.00743195 46.99635437 -75.01486389 46.99270874 -73.99221802 46.98895264 C-64.60623979 46.95189927 -55.22058651 46.89401425 -45.83485603 46.81609726 C-41.01033355 46.77670546 -36.18599132 46.74447644 -31.36132812 46.72900391 C-26.69915126 46.71378247 -22.03747023 46.67924031 -17.37551498 46.63169098 C-15.60311078 46.61693354 -13.83063576 46.60896224 -12.05817032 46.60811615 C2.92850425 46.9176456 2.92850425 46.9176456 15.91671753 40.29217529 C21.06791252 34.86803577 22.55275603 29.02592167 22.375 21.66015625 C21.51303057 15.54556061 18.69367879 9.92580265 13.8125 6.0625 C9.5748073 3.41862977 4.81225604 2.19096075 0 1 C0 0.67 0 0.34 0 0 Z " fill="#4E84AE" transform="translate(490,111)"/>
<path d="M0 0 C0.33 0 0.66 0 1 0 C2.17338157 7.41957016 2.1443878 14.75383101 2.1328125 22.25390625 C2.13348803 23.64143389 2.13446013 25.02896141 2.13571167 26.41648865 C2.13718035 29.31876761 2.13506319 32.22101567 2.13037109 35.12329102 C2.1247118 38.79849789 2.12793386 42.47363109 2.13394356 46.14883518 C2.13760387 49.01546252 2.13638523 51.88207318 2.13381577 54.7487011 C2.13284547 56.74844791 2.1358265 58.74819544 2.13894653 60.74794006 C2.11684609 69.54260962 1.68291752 78.23563225 1 87 C0.34 87 -0.32 87 -1 87 C-1.02328108 77.42846709 -1.04099485 67.8569441 -1.05181217 58.28538895 C-1.05700675 53.83982587 -1.06404139 49.39428231 -1.07543945 44.94873047 C-1.08639106 40.64987753 -1.09230256 36.35104325 -1.09487724 32.05217743 C-1.09670956 30.4209336 -1.10028705 28.78969067 -1.10573006 27.1584549 C-1.13485212 18.05995071 -0.97188167 9.05914108 0 0 Z " fill="#335A90" transform="translate(383,71)"/>
<path d="M0 0 C1.89139458 0.06028885 1.89139458 0.06028885 3.82099915 0.12179565 C5.18690907 0.17618004 6.55280957 0.23080186 7.91870117 0.28564453 C9.32399824 0.33428642 10.72932872 0.38197154 12.13468933 0.42874146 C15.82248172 0.55403232 19.50967789 0.69227289 23.19689941 0.83325195 C26.96391797 0.97497453 30.73135716 1.10439476 34.4987793 1.23486328 C41.88270829 1.49238308 49.26605055 1.76359037 56.64916992 2.04345703 C56.64916992 2.37345703 56.64916992 2.70345703 56.64916992 3.04345703 C34.53916992 3.04345703 12.42916992 3.04345703 -10.35083008 3.04345703 C-10.35083008 16.90345703 -10.35083008 30.76345703 -10.35083008 45.04345703 C-10.68083008 45.04345703 -11.01083008 45.04345703 -11.35083008 45.04345703 C-11.35083008 30.85345703 -11.35083008 16.66345703 -11.35083008 2.04345703 C-6.66975104 0.17102542 -4.81029903 -0.1735178 0 0 Z " fill="#3684AE" transform="translate(423.350830078125,37.95654296875)"/>
<path d="M0 0 C8.72792875 -0.023235 17.45584674 -0.04097176 26.18379974 -0.05181217 C30.23712766 -0.05701667 34.29043432 -0.06406985 38.34375 -0.07543945 C42.26003731 -0.08635516 46.17630424 -0.09229515 50.09260559 -0.09487724 C51.58201925 -0.0967159 53.07143187 -0.1003062 54.56083679 -0.10573006 C70.217457 -0.16044542 70.217457 -0.16044542 76 1 C76.495 1.99 76.495 1.99 77 3 C70.5469684 3.12653003 70.5469684 3.12653003 67.85546875 2.50390625 C63.73461332 1.77669647 59.67582113 1.85581552 55.5 1.875 C54.65824219 1.87113281 53.81648438 1.86726562 52.94921875 1.86328125 C48.79513545 1.86982311 45.07690925 2.16332086 41 3 C40.01 2.67 39.02 2.34 38 2 C35.12305329 1.9146987 32.27099818 1.88414355 29.39453125 1.90234375 C28.55532639 1.9037587 27.71612152 1.90517365 26.85148621 1.90663147 C24.17178784 1.91222785 21.4921731 1.92477965 18.8125 1.9375 C16.99544392 1.94251547 15.17838652 1.94707829 13.36132812 1.95117188 C8.90751987 1.96219609 4.45377411 1.97945822 0 2 C0 1.34 0 0.68 0 0 Z " fill="#2493C3" transform="translate(422,14)"/>
<path d="M0 0 C1.07378906 0.08378906 2.14757812 0.16757813 3.25390625 0.25390625 C4.69007622 0.3571603 6.12627581 0.46000294 7.5625 0.5625 C8.61920898 0.64661133 8.61920898 0.64661133 9.69726562 0.73242188 C14.30119211 1.05066564 18.41820317 0.69603851 23 0 C25.51171875 0.15625 25.51171875 0.15625 27.6875 0.5 C30.86217723 0.99621953 32.90937158 0.77977181 36 0 C38.08234592 -0.06743348 40.16668557 -0.08514472 42.25 -0.0625 C43.86648438 -0.04896484 43.86648438 -0.04896484 45.515625 -0.03515625 C46.33546875 -0.02355469 47.1553125 -0.01195312 48 0 C44.55799736 3.44200264 41.28085323 3.12826548 36.63671875 3.1328125 C35.35603516 3.13410156 34.07535156 3.13539063 32.75585938 3.13671875 C32.08578857 3.13462402 31.41571777 3.1325293 30.7253418 3.13037109 C28.73291595 3.1251197 26.74047082 3.13079186 24.74804688 3.13671875 C16.11359569 3.12812298 7.60155202 2.73428903 -1 2 C-0.67 1.34 -0.34 0.68 0 0 Z " fill="#295691" transform="translate(453,183)"/>
<path d="M0 0 C3.81014932 1.27004977 4.17627457 2.51113397 6 6 C9.57824961 13.57746976 10.21091542 20.66470394 9.8125 28.875 C9.78244873 29.62491211 9.75239746 30.37482422 9.72143555 31.14746094 C9.37018452 36.5829321 9.37018452 36.5829321 7.46362305 38.73095703 C6.73912964 39.3591333 6.73912964 39.3591333 6 40 C6.01571045 39.32533691 6.0314209 38.65067383 6.04760742 37.95556641 C6.11066079 34.84546576 6.14921131 31.73550028 6.1875 28.625 C6.21263672 27.56410156 6.23777344 26.50320312 6.26367188 25.41015625 C6.3503058 15.99593632 4.57238727 8.27384363 0 0 Z " fill="#CFEEF5" transform="translate(535,110)"/>
<path d="M0 0 C6.87435295 5.8634187 11.06593371 14.25151322 13 23 C13.24479287 26.38074062 13.23504037 29.73712331 13.1875 33.125 C13.18685547 34.00542969 13.18621094 34.88585937 13.18554688 35.79296875 C13.15712133 39.98099916 13.05837431 43.91890868 12 48 C11.67 48 11.34 48 11 48 C11.02094727 47.43716309 11.04189453 46.87432617 11.06347656 46.29443359 C11.90577462 25.83098912 11.90577462 25.83098912 3 8 C0 2.53571429 0 2.53571429 0 0 Z " fill="#3882A8" transform="translate(529,103)"/>
<path d="M0 0 C1.20912345 3.44015124 0.83833855 5.16460468 -0.6875 8.4375 C-4.13429178 15.5764484 -8.21077938 19.12750766 -15 23 C-15 21.68 -15 20.36 -15 19 C-12.5625 17.375 -12.5625 17.375 -10 16 C-9.67 15.34 -9.34 14.68 -9 14 C-8.34 14 -7.68 14 -7 14 C-6.731875 13.443125 -6.46375 12.88625 -6.1875 12.3125 C-5 10 -5 10 -3.5 7.5625 C-2.0564466 5.09642962 -0.99329973 2.67426851 0 0 Z " fill="#3292BD" transform="translate(530,71)"/>
<path d="M0 0 C5.61 0 11.22 0 17 0 C19.17849174 6.53547523 19.17849174 6.53547523 18 10 C17.85966422 11.439735 17.75583143 12.88337149 17.68359375 14.328125 C17.64169922 15.12734375 17.59980469 15.9265625 17.55664062 16.75 C17.51732422 17.575 17.47800781 18.4 17.4375 19.25 C17.39431641 20.09046875 17.35113281 20.9309375 17.30664062 21.796875 C17.20091457 23.86440671 17.09998705 25.93218281 17 28 C16.67 28 16.34 28 16 28 C16 19.09 16 10.18 16 1 C10.72 1 5.44 1 0 1 C0 0.67 0 0.34 0 0 Z " fill="#2E366C" transform="translate(366,158)"/>
<path d="M0 0 C1 3 1 3 0.03125 5.63671875 C-3.28312783 12.24010928 -6.78141233 17.75053311 -12 23 C-12.66 22.01 -13.32 21.02 -14 20 C-13.360625 19.7525 -12.72125 19.505 -12.0625 19.25 C-9.81270124 18.2074709 -9.81270124 18.2074709 -9.4375 16 C-9.293125 15.34 -9.14875 14.68 -9 14 C-8.01 13.34 -7.02 12.68 -6 12 C-5.27617533 9.94074861 -5.27617533 9.94074861 -5 8 C-4.34 8 -3.68 8 -3 8 C-2.690625 6.865625 -2.38125 5.73125 -2.0625 4.5625 C-1 1 -1 1 0 0 Z " fill="#3B78A2" transform="translate(539,151)"/>
<path d="M0 0 C2.97 0 5.94 0 9 0 C9 0.66 9 1.32 9 2 C10.0828125 2.37125 10.0828125 2.37125 11.1875 2.75 C17.27359262 5.45493005 20.25849347 9.0952167 23 15 C22.6015625 17.21875 22.6015625 17.21875 22 19 C21.72027344 18.33613281 21.44054687 17.67226562 21.15234375 16.98828125 C18.43718067 11.00793814 16.05548429 6.84284186 10 4 C6.70594636 2.8152965 3.39724299 1.84076637 0 1 C0 0.67 0 0.34 0 0 Z " fill="#397DA5" transform="translate(490,111)"/>
<path d="M0 0 C2.63741552 3.95612328 3.06834915 7.28390854 3 12 C2.34398222 15.03598928 1.4124281 17.17514381 0 20 C-0.99 20.33 -1.98 20.66 -3 21 C-2.5359375 19.4221875 -2.5359375 19.4221875 -2.0625 17.8125 C-0.57796206 11.96910597 -0.34748289 5.99865199 0 0 Z " fill="#2A90BA" transform="translate(505,53)"/>
<path d="M0 0 C3.96 0 7.92 0 12 0 C12 0.66 12 1.32 12 2 C12.7425 1.95875 13.485 1.9175 14.25 1.875 C17.08758952 2.00398134 18.58773938 2.57051222 21 4 C21 4.99 21 5.98 21 7 C19.14375 6.3503125 19.14375 6.3503125 17.25 5.6875 C11.58302782 3.78947104 5.80978785 2.38609152 0 1 C0 0.67 0 0.34 0 0 Z " fill="#CEF5FA" transform="translate(492,13)"/>
<path d="M0 0 C3.45783802 1.15261267 3.80618466 1.80531758 5.625 4.8125 C6.05039062 5.49957031 6.47578125 6.18664063 6.9140625 6.89453125 C9.14007715 11.21043734 9.26337439 15.1714696 9 20 C8.34 20.99 7.68 21.98 7 23 C6.96261719 22.20335938 6.92523438 21.40671875 6.88671875 20.5859375 C6.41424243 12.97073101 5.7174694 7.44520895 0 2 C0 1.34 0 0.68 0 0 Z " fill="#CCF5FB" transform="translate(496,46)"/>
<path d="M0 0 C0.33 0.99 0.66 1.98 1 3 C-0.61594832 5.04119788 -2.2856382 7.04072937 -4 9 C-4.33 9.99 -4.66 10.98 -5 12 C-7.475 11.01 -7.475 11.01 -10 10 C-6.66666667 6.66666667 -3.33333333 3.33333333 0 0 Z " fill="#E4F9FC" transform="translate(526,84)"/>
<path d="M0 0 C0 3 0 3 -1.21484375 4.5703125 C-5.9420507 8.83658997 -9.66228041 9.97125751 -16 10 C-16.33 9.34 -16.66 8.68 -17 8 C-15.91332031 7.76216797 -15.91332031 7.76216797 -14.8046875 7.51953125 C-8.58631093 6.0188297 -4.54097559 4.54097559 0 0 Z " fill="#358AB3" transform="translate(501,74)"/>
<path d="M0 0 C4.18659858 3.82774727 7.37820862 7.94607874 10 13 C10 13.66 10 14.32 10 15 C9.34 15 8.68 15 8 15 C6.55500462 13.02517298 5.26400115 11.08696592 4 9 C3.62101563 8.37738281 3.24203125 7.75476563 2.8515625 7.11328125 C0 2.28989362 0 2.28989362 0 0 Z " fill="#3D8BB1" transform="translate(529,103)"/>
<path d="M0 0 C8.6309795 3.85421412 8.6309795 3.85421412 11 8 C9.68 7.67 8.36 7.34 7 7 C7 6.34 7 5.68 7 5 C5.824375 4.7834375 5.824375 4.7834375 4.625 4.5625 C2 4 2 4 0 3 C0 2.01 0 1.02 0 0 Z " fill="#3689B0" transform="translate(516,94)"/>
<path d="M0 0 C0.66 0 1.32 0 2 0 C0.64978174 4.41889613 -1.26115668 6.34345343 -5 9 C-5 7.68 -5 6.36 -5 5 C-4.01 5 -3.02 5 -2 5 C-1.7834375 4.0409375 -1.7834375 4.0409375 -1.5625 3.0625 C-1 1 -1 1 0 0 Z " fill="#D0F5FB" transform="translate(501,70)"/>
<path d="M0 0 C-1.45255699 3.82946843 -3.42895561 5.12050295 -7 7 C-7 5.68 -7 4.36 -7 3 C-2.92857143 0 -2.92857143 0 0 0 Z " fill="#2F8AB7" transform="translate(522,87)"/>
<path d="M0 0 C0.33 0 0.66 0 1 0 C1.10836453 1.43583001 1.18576167 2.8740202 1.25 4.3125 C1.29640625 5.11300781 1.3428125 5.91351563 1.390625 6.73828125 C1 9 1 9 -3 12 C-2.01 8.04 -1.02 4.08 0 0 Z " fill="#D7F7FC" transform="translate(534,66)"/>
<path d="M0 0 C-2 2 -2 2 -4.3828125 2.1953125 C-5.28773438 2.17210937 -6.19265625 2.14890625 -7.125 2.125 C-8.49011719 2.09792969 -8.49011719 2.09792969 -9.8828125 2.0703125 C-10.58148438 2.04710937 -11.28015625 2.02390625 -12 2 C-12 1.67 -12 1.34 -12 1 C-3.96428571 -1.27678571 -3.96428571 -1.27678571 0 0 Z " fill="#DCF0F8" transform="translate(508,185)"/>
<path d="M0 0 C1.32 0 2.64 0 4 0 C4 0.66 4 1.32 4 2 C4.804375 2.2475 5.60875 2.495 6.4375 2.75 C7.283125 3.1625 8.12875 3.575 9 4 C9.66015625 6.078125 9.66015625 6.078125 10 8 C8.70684939 7.04367001 7.41553147 6.08486149 6.125 5.125 C5.40570312 4.59132813 4.68640625 4.05765625 3.9453125 3.5078125 C2 2 2 2 0 0 Z " fill="#CBF7FC" transform="translate(513,20)"/>
<path d="M0 0 C0.99 0 1.98 0 3 0 C6.125 6.5 6.125 6.5 5 11 C3.35 7.37 1.7 3.74 0 0 Z " fill="#D1F8FD" transform="translate(527,33)"/>
<path d="M0 0 C-1.49097658 3.7952131 -3.75700849 5.61042731 -7 8 C-7 5 -7 5 -4.625 2.3125 C-2 0 -2 0 0 0 Z " fill="#DAF6FB" transform="translate(510,146)"/>
<path d="M0 0 C0.66 0.33 1.32 0.66 2 1 C1.34 1.66 0.68 2.32 0 3 C0 4.32 0 5.64 0 7 C-2.475 6.01 -2.475 6.01 -5 5 C-3.35 3.35 -1.7 1.7 0 0 Z " fill="#C6F3FA" transform="translate(521,89)"/>
</svg>
